<?xml version="1.0" encoding="UTF-8" standalone="no"?>
<svg
   xmlns:osb="http://www.openswatchbook.org/uri/2009/osb"
   xmlns:dc="http://purl.org/dc/elements/1.1/"
   xmlns:cc="http://creativecommons.org/ns#"
   xmlns:rdf="http://www.w3.org/1999/02/22-rdf-syntax-ns#"
   xmlns:svg="http://www.w3.org/2000/svg"
   xmlns="http://www.w3.org/2000/svg"
   xmlns:sodipodi="http://sodipodi.sourceforge.net/DTD/sodipodi-0.dtd"
   xmlns:inkscape="http://www.inkscape.org/namespaces/inkscape"
   width="250"
   height="390"
   viewBox="0 0 66.145832 103.18751"
   version="1.1"
   id="svg8"
   inkscape:version="0.92.4 (5da689c313, 2019-01-14)"
   sodipodi:docname="dark.svg"
   inkscape:export-filename="/home/ian/dark.png"
   inkscape:export-xdpi="96"
   inkscape:export-ydpi="96">
  <defs
     id="defs2">
    <linearGradient
       osb:paint="solid"
       id="linearGradient6882">
      <stop
         style="stop-color:#555555;stop-opacity:1;"
         offset="0"
         id="stop6884" />
    </linearGradient>
    <linearGradient
       osb:paint="solid"
       id="linearGradient5606">
      <stop
         style="stop-color:#000000;stop-opacity:1;"
         offset="0"
         id="stop5608" />
    </linearGradient>
    <filter
       style="color-interpolation-filters:sRGB"
       id="filter7554">
      <feBlend
         mode="darken"
         in2="BackgroundImage"
         id="feBlend7556" />
    </filter>
    <filter
       style="color-interpolation-filters:sRGB"
       id="filter7554-3">
      <feBlend
         mode="darken"
         in2="BackgroundImage"
         id="feBlend7556-5" />
    </filter>
    <filter
       style="color-interpolation-filters:sRGB"
       id="filter7554-2">
      <feBlend
         mode="darken"
         in2="BackgroundImage"
         id="feBlend7556-7" />
    </filter>
    <filter
       style="color-interpolation-filters:sRGB"
       id="filter7554-0">
      <feBlend
         mode="darken"
         in2="BackgroundImage"
         id="feBlend7556-6" />
    </filter>
    <filter
       style="color-interpolation-filters:sRGB"
       id="filter7554-7">
      <feBlend
         mode="darken"
         in2="BackgroundImage"
         id="feBlend7556-9" />
    </filter>
    <filter
       style="color-interpolation-filters:sRGB"
       id="filter7554-75">
      <feBlend
         mode="darken"
         in2="BackgroundImage"
         id="feBlend7556-92" />
    </filter>
    <filter
       style="color-interpolation-filters:sRGB"
       id="filter7554-36">
      <feBlend
         mode="darken"
         in2="BackgroundImage"
         id="feBlend7556-1" />
    </filter>
    <filter
       style="color-interpolation-filters:sRGB"
       id="filter7554-9">
      <feBlend
         mode="darken"
         in2="BackgroundImage"
         id="feBlend7556-4" />
    </filter>
    <filter
       style="color-interpolation-filters:sRGB"
       id="filter7554-03">
      <feBlend
         mode="darken"
         in2="BackgroundImage"
         id="feBlend7556-61" />
    </filter>
    <filter
       style="color-interpolation-filters:sRGB"
       id="filter7554-06">
      <feBlend
         mode="darken"
         in2="BackgroundImage"
         id="feBlend7556-15" />
    </filter>
    <filter
       style="color-interpolation-filters:sRGB"
       id="filter7554-5">
      <feBlend
         mode="darken"
         in2="BackgroundImage"
         id="feBlend7556-69" />
    </filter>
    <filter
       style="color-interpolation-filters:sRGB"
       id="filter7554-05">
      <feBlend
         mode="darken"
         in2="BackgroundImage"
         id="feBlend7556-11" />
    </filter>
    <filter
       style="color-interpolation-filters:sRGB"
       id="filter7554-6">
      <feBlend
         mode="darken"
         in2="BackgroundImage"
         id="feBlend7556-46" />
    </filter>
    <clipPath
       clipPathUnits="userSpaceOnUse"
       id="clipPath4792">
      <rect
         id="rect4794"
         width="66.145836"
         height="103.0552"
         x="69.284897"
         y="-25.645231"
         style="stroke-width:0.26458335" />
    </clipPath>
    <clipPath
       clipPathUnits="userSpaceOnUse"
       id="clipPath4796">
      <rect
         id="rect4798"
         width="66.145836"
         height="103.0552"
         x="56.676216"
         y="-18.856667"
         style="stroke-width:0.26458335" />
    </clipPath>
    <clipPath
       clipPathUnits="userSpaceOnUse"
       id="clipPath4800">
      <rect
         id="rect4802"
         width="66.145836"
         height="103.0552"
         x="48.045155"
         y="-23.06455"
         style="stroke-width:0.26458335" />
    </clipPath>
    <clipPath
       clipPathUnits="userSpaceOnUse"
       id="clipPath4804">
      <rect
         id="rect4806"
         width="66.145836"
         height="103.0552"
         x="-1.7763568e-15"
         y="7.1054274e-15"
         style="stroke-width:0.26458335" />
    </clipPath>
    <clipPath
       clipPathUnits="userSpaceOnUse"
       id="clipPath4808">
      <rect
         id="rect4810"
         width="66.145836"
         height="103.0552"
         x="-1.7763568e-15"
         y="7.1054274e-15"
         style="stroke-width:0.26458335" />
    </clipPath>
    <clipPath
       clipPathUnits="userSpaceOnUse"
       id="clipPath4812">
      <rect
         id="rect4814"
         width="66.145836"
         height="103.0552"
         x="-1.7763568e-15"
         y="7.1054274e-15"
         style="stroke-width:0.26458335" />
    </clipPath>
    <clipPath
       clipPathUnits="userSpaceOnUse"
       id="clipPath4816">
      <rect
         id="rect4818"
         width="66.145836"
         height="103.0552"
         x="-1.7763568e-15"
         y="7.1054274e-15"
         style="stroke-width:0.26458335" />
    </clipPath>
    <clipPath
       clipPathUnits="userSpaceOnUse"
       id="clipPath4820">
      <rect
         id="rect4822"
         width="66.145836"
         height="103.0552"
         x="-1.7763568e-15"
         y="7.1054274e-15"
         style="stroke-width:0.26458335" />
    </clipPath>
    <clipPath
       clipPathUnits="userSpaceOnUse"
       id="clipPath4824">
      <rect
         id="rect4826"
         width="66.145836"
         height="103.0552"
         x="-1.7763568e-15"
         y="7.1054274e-15"
         style="stroke-width:0.26458335" />
    </clipPath>
    <clipPath
       clipPathUnits="userSpaceOnUse"
       id="clipPath4828">
      <rect
         id="rect4830"
         width="66.145836"
         height="103.0552"
         x="-1.7763568e-15"
         y="7.1054274e-15"
         style="stroke-width:0.26458335" />
    </clipPath>
    <clipPath
       clipPathUnits="userSpaceOnUse"
       id="clipPath4832">
      <rect
         id="rect4834"
         width="66.145836"
         height="103.0552"
         x="-1.7763568e-15"
         y="7.1054274e-15"
         style="stroke-width:0.26458335" />
    </clipPath>
    <clipPath
       clipPathUnits="userSpaceOnUse"
       id="clipPath4836">
      <rect
         id="rect4838"
         width="66.145836"
         height="103.0552"
         x="-1.7763568e-15"
         y="7.1054274e-15"
         style="stroke-width:0.26458335" />
    </clipPath>
    <clipPath
       clipPathUnits="userSpaceOnUse"
       id="clipPath4840">
      <rect
         id="rect4842"
         width="66.145836"
         height="103.0552"
         x="-1.7763568e-15"
         y="7.1054274e-15"
         style="stroke-width:0.26458335" />
    </clipPath>
    <clipPath
       clipPathUnits="userSpaceOnUse"
       id="clipPath4844">
      <rect
         id="rect4846"
         width="66.145836"
         height="103.0552"
         x="-1.7763568e-15"
         y="7.1054274e-15"
         style="stroke-width:0.26458335" />
    </clipPath>
    <clipPath
       clipPathUnits="userSpaceOnUse"
       id="clipPath4848">
      <rect
         id="rect4850"
         width="66.145836"
         height="103.0552"
         x="-1.7763568e-15"
         y="7.1054274e-15"
         style="stroke-width:0.26458335" />
    </clipPath>
    <clipPath
       clipPathUnits="userSpaceOnUse"
       id="clipPath4852">
      <rect
         id="rect4854"
         width="66.145836"
         height="103.0552"
         x="-1.7763568e-15"
         y="7.1054274e-15"
         style="stroke-width:0.26458335" />
    </clipPath>
    <clipPath
       clipPathUnits="userSpaceOnUse"
       id="clipPath4856">
      <rect
         id="rect4858"
         width="66.145836"
         height="103.0552"
         x="-1.7763568e-15"
         y="7.1054274e-15"
         style="stroke-width:0.26458335" />
    </clipPath>
    <clipPath
       clipPathUnits="userSpaceOnUse"
       id="clipPath4860">
      <rect
         id="rect4862"
         width="66.145836"
         height="103.0552"
         x="108.82577"
         y="-5.9984226"
         style="stroke-width:0.26458335" />
    </clipPath>
    <clipPath
       clipPathUnits="userSpaceOnUse"
       id="clipPath4864">
      <rect
         id="rect4866"
         width="66.145836"
         height="103.0552"
         x="108.82577"
         y="-19.685251"
         style="stroke-width:0.26458335" />
    </clipPath>
    <clipPath
       clipPathUnits="userSpaceOnUse"
       id="clipPath4868">
      <rect
         id="rect4870"
         width="66.145836"
         height="103.0552"
         x="108.82577"
         y="-12.85503"
         style="stroke-width:0.26458335" />
    </clipPath>
    <clipPath
       clipPathUnits="userSpaceOnUse"
       id="clipPath4872">
      <rect
         id="rect4874"
         width="66.145836"
         height="103.0552"
         x="94.9851"
         y="48.417553"
         style="stroke-width:0.26458335" />
    </clipPath>
    <clipPath
       clipPathUnits="userSpaceOnUse"
       id="clipPath4876">
      <rect
         id="rect4878"
         width="66.145836"
         height="103.0552"
         x="67.182404"
         y="-11.268841"
         style="stroke-width:0.26458335" />
    </clipPath>
    <clipPath
       clipPathUnits="userSpaceOnUse"
       id="clipPath4880">
      <rect
         id="rect4882"
         width="66.145836"
         height="103.0552"
         x="63.341694"
         y="-44.625118"
         style="stroke-width:0.26458335" />
    </clipPath>
    <clipPath
       clipPathUnits="userSpaceOnUse"
       id="clipPath4884">
      <rect
         id="rect4886"
         width="66.145836"
         height="103.0552"
         x="102.26238"
         y="-11.761271"
         style="stroke-width:0.26458335" />
    </clipPath>
    <clipPath
       clipPathUnits="userSpaceOnUse"
       id="clipPath4888">
      <rect
         id="rect4890"
         width="66.145836"
         height="103.0552"
         x="142.20747"
         y="-62.452126"
         style="stroke-width:0.26458335" />
    </clipPath>
    <clipPath
       clipPathUnits="userSpaceOnUse"
       id="clipPath4892">
      <rect
         id="rect4894"
         width="66.145836"
         height="103.0552"
         x="113.03247"
         y="-68.353912"
         style="stroke-width:0.26458335" />
    </clipPath>
    <clipPath
       clipPathUnits="userSpaceOnUse"
       id="clipPath4896">
      <rect
         id="rect4898"
         width="66.145836"
         height="103.0552"
         x="96.728493"
         y="-86.944893"
         style="stroke-width:0.26458335" />
    </clipPath>
    <clipPath
       clipPathUnits="userSpaceOnUse"
       id="clipPath4900">
      <rect
         id="rect4902"
         width="66.145836"
         height="103.0552"
         x="135.4989"
         y="-66.093445"
         style="stroke-width:0.26458335" />
    </clipPath>
    <clipPath
       clipPathUnits="userSpaceOnUse"
       id="clipPath4904">
      <rect
         id="rect4906"
         width="66.145836"
         height="103.0552"
         x="101.03592"
         y="-62.12257"
         style="stroke-width:0.26458335" />
    </clipPath>
    <clipPath
       clipPathUnits="userSpaceOnUse"
       id="clipPath4908">
      <rect
         id="rect4910"
         width="66.145836"
         height="103.0552"
         x="-46.155777"
         y="-35.970535"
         style="stroke-width:0.26458335" />
    </clipPath>
    <clipPath
       clipPathUnits="userSpaceOnUse"
       id="clipPath4912">
      <rect
         id="rect4914"
         width="66.145836"
         height="103.0552"
         x="97.025177"
         y="-34.694038"
         style="stroke-width:0.26458335" />
    </clipPath>
    <clipPath
       clipPathUnits="userSpaceOnUse"
       id="clipPath4916">
      <rect
         id="rect4918"
         width="66.145836"
         height="103.0552"
         x="-1.7763568e-15"
         y="7.1054274e-15"
         style="stroke-width:0.26458335" />
    </clipPath>
    <clipPath
       clipPathUnits="userSpaceOnUse"
       id="clipPath4920">
      <rect
         id="rect4922"
         width="66.145836"
         height="103.0552"
         x="-1.7763568e-15"
         y="7.1054274e-15"
         style="stroke-width:0.26458335" />
    </clipPath>
    <clipPath
       clipPathUnits="userSpaceOnUse"
       id="clipPath4924">
      <rect
         id="rect4926"
         width="66.145836"
         height="103.0552"
         x="-1.7763568e-15"
         y="7.1054274e-15"
         style="stroke-width:0.26458335" />
    </clipPath>
    <clipPath
       clipPathUnits="userSpaceOnUse"
       id="clipPath4928">
      <rect
         id="rect4930"
         width="66.145836"
         height="103.0552"
         x="-1.7763568e-15"
         y="7.1054274e-15"
         style="stroke-width:0.26458335" />
    </clipPath>
    <clipPath
       clipPathUnits="userSpaceOnUse"
       id="clipPath4932">
      <rect
         id="rect4934"
         width="66.145836"
         height="103.0552"
         x="-1.7763568e-15"
         y="7.1054274e-15"
         style="stroke-width:0.26458335" />
    </clipPath>
    <clipPath
       clipPathUnits="userSpaceOnUse"
       id="clipPath4936">
      <rect
         id="rect4938"
         width="66.145836"
         height="103.0552"
         x="-1.7763568e-15"
         y="7.1054274e-15"
         style="stroke-width:0.26458335" />
    </clipPath>
    <clipPath
       clipPathUnits="userSpaceOnUse"
       id="clipPath4940">
      <rect
         id="rect4942"
         width="66.145836"
         height="103.0552"
         x="-1.7763568e-15"
         y="7.1054274e-15"
         style="stroke-width:0.26458335" />
    </clipPath>
    <clipPath
       clipPathUnits="userSpaceOnUse"
       id="clipPath4944">
      <rect
         id="rect4946"
         width="66.145836"
         height="103.0552"
         x="-1.7763568e-15"
         y="7.1054274e-15"
         style="stroke-width:0.26458335" />
    </clipPath>
    <clipPath
       clipPathUnits="userSpaceOnUse"
       id="clipPath4948">
      <rect
         id="rect4950"
         width="66.145836"
         height="103.0552"
         x="-1.7763568e-15"
         y="7.1054274e-15"
         style="stroke-width:0.26458335" />
    </clipPath>
    <clipPath
       clipPathUnits="userSpaceOnUse"
       id="clipPath4952">
      <rect
         id="rect4954"
         width="66.145836"
         height="103.0552"
         x="-1.7763568e-15"
         y="7.1054274e-15"
         style="stroke-width:0.26458335" />
    </clipPath>
  </defs>
  <sodipodi:namedview
     id="base"
     pagecolor="#ffffff"
     bordercolor="#666666"
     borderopacity="1.0"
     inkscape:pageopacity="0.0"
     inkscape:pageshadow="2"
     inkscape:zoom="2"
     inkscape:cx="110.16155"
     inkscape:cy="203.82362"
     inkscape:document-units="px"
     inkscape:current-layer="layer4"
     inkscape:document-rotation="0"
     showgrid="false"
     units="px"
     inkscape:snap-smooth-nodes="true"
     showguides="true"
     inkscape:guide-bbox="true"
     inkscape:window-width="960"
     inkscape:window-height="1016"
     inkscape:window-x="0"
     inkscape:window-y="27"
     inkscape:window-maximized="0"
     fit-margin-top="0"
     fit-margin-left="0"
     fit-margin-right="0"
     fit-margin-bottom="0">
    <inkscape:grid
       type="xygrid"
       id="grid839"
       spacingx="0.13229167"
       spacingy="0.13229167"
       empspacing="2"
       originx="5.3290699e-15"
       originy="-2.6458574" />
  </sodipodi:namedview>
  <metadata
     id="metadata5">
    <rdf:RDF>
      <cc:Work
         rdf:about="">
        <dc:format>image/svg+xml</dc:format>
        <dc:type
           rdf:resource="http://purl.org/dc/dcmitype/StillImage" />
        <dc:title />
      </cc:Work>
    </rdf:RDF>
  </metadata>
  <g
     inkscape:groupmode="layer"
     id="layer2"
     inkscape:label="Wallpaper"
     transform="translate(0,1.3618187e-5)">
    <rect
       style="fill:#63b1bc;fill-opacity:1;stroke:none;stroke-width:3.91631365"
       id="rect834"
       width="66.145836"
       height="103.05521"
       x="-1.2715658e-06"
       y="-5.0862632e-06"
       ry="0"
       clip-path="url(#clipPath4952)"
       transform="matrix(1,0,0,1.0012838,0,-1.3618187e-5)" />
  </g>
  <g
     inkscape:groupmode="layer"
     id="layer3"
     inkscape:label="Menu"
     transform="translate(0,1.3618187e-5)">
    <path
       id="rect837"
       style="fill:#363333;fill-opacity:1;stroke:#000000;stroke-width:0.26458335;stroke-miterlimit:4;stroke-dasharray:none;stroke-opacity:0.41318102"
       d="m 52.652085,9.5249993 -3.175,3.3072907 H 5.8208335 c -1.0260542,0 -1.7197917,0.693738 -1.7197917,1.719792 v 82.285419 c 0,1.026064 0.6937375,1.719788 1.7197917,1.719788 H 60.325002 c 1.026054,0 1.719791,-0.693724 1.719791,-1.719788 V 14.552082 c 0,-1.026054 -0.693737,-1.719792 -1.719791,-1.719792 h -4.497917 z"
       inkscape:connector-curvature="0"
       sodipodi:nodetypes="ccsssssssscc"
       clip-path="url(#clipPath4948)" />
    <g
       inkscape:groupmode="layer"
       id="layer7"
       inkscape:label="Submenu"
       style="display:inline">
      <rect
         style="fill:#2a2928;fill-opacity:1;stroke:none;stroke-width:0.79374999;stroke-miterlimit:4;stroke-dasharray:none;stroke-opacity:1"
         id="rect1692"
         width="57.679169"
         height="14.287498"
         x="4.2333336"
         y="42.862499"
         ry="1.1355905e-06"
         clip-path="url(#clipPath4944)" />
    </g>
    <g
       inkscape:groupmode="layer"
       id="layer8"
       inkscape:label="Active">
      <rect
         ry="5.0470703e-07"
         y="37.287621"
         x="4.2333336"
         height="6.3500004"
         width="57.679169"
         id="rect1694"
         style="display:inline;fill:#f8b572;fill-opacity:1;stroke:none;stroke-width:0.529167;stroke-miterlimit:4;stroke-dasharray:none;stroke-opacity:1"
         clip-path="url(#clipPath4940)" />
    </g>
    <g
       inkscape:groupmode="layer"
       id="layer5"
       inkscape:label="Labels"
       style="display:inline">
      <text
         xml:space="preserve"
         style="font-style:normal;font-variant:normal;font-weight:normal;font-stretch:normal;font-size:3.17499995px;line-height:1.25;font-family:'Fira Sans';-inkscape-font-specification:'Fira Sans';opacity:1;fill:#2f2d2c;fill-opacity:1;stroke-width:0.26458299"
         x="16.778965"
         y="41.341873"
         id="text1450"
         clip-path="url(#clipPath4936)"><tspan
           sodipodi:role="line"
           id="tspan1448"
           x="16.778965"
           y="41.341873"
           style="font-style:normal;font-variant:normal;font-weight:normal;font-stretch:normal;font-family:'Fira Sans';-inkscape-font-specification:'Fira Sans';fill:#2f2d2c;fill-opacity:1;stroke-width:0.26458299">System76</tspan></text>
      <text
         xml:space="preserve"
         style="font-style:normal;font-variant:normal;font-weight:normal;font-stretch:normal;font-size:3.17499995px;line-height:1.25;font-family:'Fira Sans';-inkscape-font-specification:'Fira Sans';opacity:1;fill:#e5e5e5;fill-opacity:1;stroke-width:0.26458299"
         x="16.778965"
         y="48.582153"
         id="text1454"
         clip-path="url(#clipPath4932)"><tspan
           sodipodi:role="line"
           id="tspan1452"
           x="16.778965"
           y="48.582153"
           style="font-style:normal;font-variant:normal;font-weight:normal;font-stretch:normal;font-family:'Fira Sans';-inkscape-font-specification:'Fira Sans';fill:#e5e5e5;fill-opacity:1;stroke-width:0.26458299">Select Network</tspan></text>
      <text
         xml:space="preserve"
         style="font-style:normal;font-variant:normal;font-weight:normal;font-stretch:normal;font-size:3.17499995px;line-height:1.25;font-family:'Fira Sans';-inkscape-font-specification:'Fira Sans';opacity:1;fill:#e5e5e5;fill-opacity:1;stroke-width:0.26458299"
         x="16.54084"
         y="62.268974"
         id="text1466"
         clip-path="url(#clipPath4928)"><tspan
           sodipodi:role="line"
           id="tspan1464"
           x="16.54084"
           y="62.268974"
           style="font-style:normal;font-variant:normal;font-weight:normal;font-stretch:normal;font-family:'Fira Sans';-inkscape-font-specification:'Fira Sans';fill:#e5e5e5;fill-opacity:1;stroke-width:0.26458299">Bluetooth</tspan></text>
      <text
         xml:space="preserve"
         style="font-style:normal;font-variant:normal;font-weight:normal;font-stretch:normal;font-size:3.17499995px;line-height:1.25;font-family:'Fira Sans';-inkscape-font-specification:'Fira Sans';opacity:1;fill:#e5e5e5;fill-opacity:1;stroke-width:0.26458299"
         x="16.54084"
         y="68.793304"
         id="text1470"
         clip-path="url(#clipPath4924)"><tspan
           sodipodi:role="line"
           id="tspan1468"
           x="16.54084"
           y="68.793304"
           style="font-style:normal;font-variant:normal;font-weight:normal;font-stretch:normal;font-family:'Fira Sans';-inkscape-font-specification:'Fira Sans';fill:#e5e5e5;fill-opacity:1;stroke-width:0.26458299">Fully Charged</tspan></text>
      <text
         xml:space="preserve"
         style="font-style:normal;font-variant:normal;font-weight:normal;font-stretch:normal;font-size:3.17499995px;line-height:1.25;font-family:'Fira Sans';-inkscape-font-specification:'Fira Sans';opacity:1;fill:#e5e5e5;fill-opacity:1;stroke-width:0.26458299"
         x="16.54084"
         y="75.558929"
         id="text1474"
         clip-path="url(#clipPath4920)"><tspan
           sodipodi:role="line"
           id="tspan1472"
           x="16.54084"
           y="75.558929"
           style="font-style:normal;font-variant:normal;font-weight:normal;font-stretch:normal;font-family:'Fira Sans';-inkscape-font-specification:'Fira Sans';fill:#e5e5e5;fill-opacity:1;stroke-width:0.26458299">Pop!_OS User</tspan></text>
      <text
         id="text1478"
         y="55.15411"
         x="16.778965"
         style="font-style:normal;font-variant:normal;font-weight:normal;font-stretch:normal;font-size:3.17499995px;line-height:1.25;font-family:'Fira Sans';-inkscape-font-specification:'Fira Sans';opacity:1;fill:#e5e5e5;fill-opacity:1;stroke-width:0.26458299"
         xml:space="preserve"
         clip-path="url(#clipPath4916)"><tspan
           style="font-style:normal;font-variant:normal;font-weight:normal;font-stretch:normal;font-family:'Fira Sans';-inkscape-font-specification:'Fira Sans';fill:#e5e5e5;fill-opacity:1;stroke-width:0.26458299"
           y="55.15411"
           x="16.778965"
           id="tspan1476"
           sodipodi:role="line">Wi-Fi Settings</tspan></text>
    </g>
    <g
       inkscape:groupmode="layer"
       id="layer6"
       inkscape:label="Icons"
       style="display:inline">
      <g
         style="opacity:1;fill:#e5e5e5;fill-opacity:1"
         id="g917"
         transform="translate(-97.02518,34.69404)"
         clip-path="url(#clipPath4912)">
        <path
           inkscape:connector-curvature="0"
           d="m 109.06372,-16.988047 -1.85209,2.116667 1.85209,2.116667 z m -1.32292,2.116667 v -0.79375 c 0,-0.146579 -0.118,-0.264584 -0.26458,-0.264584 -0.14658,0 -0.26459,0.118005 -0.26459,0.264584 v 1.5875 c 0,0.146579 0.11801,0.264583 0.26459,0.264583 0.14658,0 0.26458,-0.118004 0.26458,-0.264583 z"
           id="rect2976-75"
           style="opacity:1;vector-effect:none;fill:#e5e5e5;fill-opacity:1;stroke:none;stroke-width:0.26458299;stroke-linecap:round;stroke-linejoin:miter;stroke-miterlimit:4;stroke-dasharray:none;stroke-dashoffset:0;stroke-opacity:0.31372501" />
        <path
           inkscape:connector-curvature="0"
           d="m 110.65122,-16.723464 -0.45321,0.272336 c 0.24722,0.411552 0.45325,1.099653 0.45321,1.579748 4e-5,0.480094 -0.20599,1.168196 -0.45321,1.579748 l 0.45321,0.272335 c 0.29677,-0.49376 0.52906,-1.276001 0.52916,-1.852083 -1e-4,-0.576083 -0.23239,-1.358323 -0.52916,-1.852084 z"
           id="path3022-3"
           style="opacity:1;vector-effect:none;fill:#e5e5e5;fill-opacity:1;stroke:none;stroke-width:0.26458299;stroke-linecap:round;stroke-linejoin:round;stroke-miterlimit:4;stroke-dasharray:none;stroke-dashoffset:0;stroke-opacity:0.31372501" />
        <path
           inkscape:connector-curvature="0"
           d="m 109.79132,-16.326589 -0.45372,0.272336 c 0.17312,0.288086 0.25528,0.846773 0.25528,1.182873 0,0.3361 -0.0822,0.894786 -0.25528,1.182873 l 0.45372,0.272335 c 0.22249,-0.370345 0.33073,-1.02317 0.33073,-1.455208 0,-0.432038 -0.10824,-1.084863 -0.33073,-1.455209 z"
           id="path3027-5"
           style="opacity:1;vector-effect:none;fill:#e5e5e5;fill-opacity:1;stroke:none;stroke-width:0.26458299;stroke-linecap:round;stroke-linejoin:round;stroke-miterlimit:4;stroke-dasharray:none;stroke-dashoffset:0;stroke-opacity:0.31372501" />
      </g>
      <g
         style="opacity:1;fill:#e5e5e5;fill-opacity:1"
         id="g977"
         transform="translate(46.155778,35.970535)"
         clip-path="url(#clipPath4908)">
        <path
           inkscape:connector-curvature="0"
           d="m -35.572465,-10.570086 c -0.529114,0 -0.529167,0.529166 -0.529167,0.529166 v 2.3812505 c 0,0 5.3e-5,0.5291667 0.529167,0.5291667 h 3.175 c 0,0 0.529167,0 0.529167,-0.5291667 5.3e-5,-7.937e-4 0,-1.4994149 0,-2.3812345 0,0 5.3e-5,-0.529166 -0.529167,-0.529166 z m -5.6e-5,0.529151 h 3.175001 v 2.1167616 l -3.175001,-9.53e-5 z m 0.264584,3.439583 5.3e-5,0.2636943 h 2.645833 l -5.3e-5,-0.2636943 c 0,-0.2645833 -0.264583,-0.2645833 -0.264583,-0.2645833 h -2.122427 c 0,0 -0.258823,0 -0.258823,0.2645833 z"
           id="path8126-2-0-7"
           style="display:inline;opacity:1;fill:#e5e5e5;fill-opacity:1;stroke:none;stroke-width:0.26458299;enable-background:new" />
        <rect
           height="1.5875001"
           id="rect3182-1-6"
           ry="3.6718316e-17"
           style="display:inline;opacity:0.35;vector-effect:none;fill:#e5e5e5;fill-opacity:1;stroke:none;stroke-width:0.26458299;stroke-linecap:round;stroke-linejoin:round;stroke-miterlimit:4;stroke-dasharray:none;stroke-dashoffset:0;stroke-opacity:0.31372501;enable-background:new"
           width="2.6458335"
           x="-35.307934"
           y="-9.7763519" />
        <rect
           height="0.79375005"
           id="rect3182-6-1"
           ry="1.8359158e-17"
           style="display:inline;opacity:1;vector-effect:none;fill:#e5e5e5;fill-opacity:1;stroke:none;stroke-width:0.187089;stroke-linecap:round;stroke-linejoin:round;stroke-miterlimit:4;stroke-dasharray:none;stroke-dashoffset:0;stroke-opacity:0.31372501;enable-background:new"
           width="2.6458335"
           x="-35.307934"
           y="-8.9826021" />
      </g>
      <g
         style="opacity:1;fill:#000000;fill-opacity:1"
         id="g1032"
         transform="translate(-101.03592,62.122569)"
         clip-path="url(#clipPath4904)">
        <path
           inkscape:connector-curvature="0"
           d="m 113.20675,-23.22882 c -0.38304,0 -0.7662,0.07307 -1.12654,0.219106 -0.18018,0.07305 -0.35492,0.164338 -0.5209,0.273887 -0.16599,0.109548 -0.3231,0.2374 -0.46922,0.383439 l 1.73322,2.09858 h 5.3e-4 c 0.0998,0.10401 0.23774,0.162801 0.38189,0.162779 0.14457,-2.43e-4 0.28274,-0.05962 0.38241,-0.16433 h 0.001 l 1.73426,-2.097029 c -0.21936,-0.219228 -0.46411,-0.397346 -0.72502,-0.534334 -0.006,-0.0031 -0.0122,-0.0052 -0.0181,-0.0083 -0.093,-0.04805 -0.18822,-0.09001 -0.28474,-0.12764 -0.0363,-0.01415 -0.0733,-0.02606 -0.11007,-0.03876 -0.0671,-0.02318 -0.13477,-0.04426 -0.20309,-0.06253 -0.042,-0.01124 -0.0842,-0.02162 -0.12661,-0.031 -0.0698,-0.01543 -0.14028,-0.02785 -0.21083,-0.03824 -0.0386,-0.0057 -0.077,-0.01236 -0.11576,-0.01654 -0.10724,-0.01154 -0.21468,-0.01913 -0.32246,-0.01913 z"
           id="path6544"
           style="opacity:0.35;fill:#000000;fill-opacity:1;stroke:none;stroke-width:0.529167;stroke-linecap:square;stroke-linejoin:miter;stroke-miterlimit:4;stroke-dasharray:none;stroke-opacity:1" />
        <path
           inkscape:connector-curvature="0"
           d="m 113.20675,-22.43507 c -0.58934,0 -1.17867,0.22447 -1.62832,0.673859 l 1.24488,1.507403 h 5.3e-4 c 0.0998,0.10401 0.23774,0.162801 0.38189,0.162779 0.14457,-2.43e-4 0.28274,-0.05962 0.38241,-0.16433 h 0.001 l 1.2454,-1.506368 c -0.44959,-0.44904 -1.0387,-0.673343 -1.62781,-0.673343 z"
           id="path6546"
           style="opacity:1;fill:#000000;fill-opacity:1;stroke:none;stroke-width:0.529167;stroke-linecap:square;stroke-linejoin:miter;stroke-miterlimit:4;stroke-dasharray:none;stroke-opacity:1" />
      </g>
      <g
         style="opacity:1;fill:#e5e5e5;fill-opacity:1"
         id="g1082"
         transform="translate(-135.4989,66.093447)"
         clip-path="url(#clipPath4900)">
        <path
           inkscape:connector-curvature="0"
           d="m 147.67797,-7.1127133 c -0.80619,0 -1.45521,0.708025 -1.45521,1.5875 v 1.0583334 c 0,0.879475 0.64902,1.5875 1.45521,1.5875 0.80618,0 1.45521,-0.708025 1.45521,-1.5875 v -1.0583334 c 0,-0.879475 -0.64903,-1.5875 -1.45521,-1.5875 z m -0.0103,0.5457031 a 0.1323049,0.1323049 0 0 1 0.0956,0.038756 l 0.79375,0.79375 a 0.1323049,0.1323049 0 0 1 -0.0109,0.1968897 l -0.69764,0.5581042 0.69763,0.5581068 a 0.1323049,0.1323049 0 0 1 0.0109,0.196887 l -0.79375,0.7937501 a 0.1323049,0.1323049 0 0 1 -0.22582,-0.093536 v -1.2061269 l -0.57878,0.4630208 a 0.13235625,0.13235625 0 0 1 -0.16536,-0.2067057 l 0.63148,-0.5053965 -0.63148,-0.5053965 a 0.1323049,0.1323049 0 1 1 0.16536,-0.2061872 l 0.57878,0.4630209 v -1.2066456 a 0.1323049,0.1323049 0 0 1 0.13022,-0.1322917 z m 0.13436,0.4516517 v 0.8340593 l 0.46354,-0.3705225 z m 0,1.4376401 v 0.8340566 l 0.46354,-0.4635368 z"
           id="rect5886-2-6"
           style="display:inline;opacity:1;fill:#e5e5e5;fill-opacity:1;stroke:none;stroke-width:0.26458299;enable-background:new" />
      </g>
      <g
         style="opacity:1;fill:#e5e5e5;fill-opacity:1"
         id="g1132"
         transform="translate(-96.728496,86.94489)"
         clip-path="url(#clipPath4896)">
        <path
           inkscape:connector-curvature="0"
           d="m 108.89933,-21.063641 c -0.29225,0 -0.52917,0.236916 -0.52917,0.529167 h -0.26458 c -0.29225,0 -0.52917,0.236916 -0.52917,0.529167 v 2.38125 c 0,0.292251 0.23692,0.529167 0.52917,0.529167 h 1.5875 a 0.52916668,0.52916668 0 0 0 0.52916,-0.529167 v -2.38125 c 0,-0.292251 -0.23691,-0.529167 -0.52916,-0.529167 l -0.26459,5.29e-4 v -5.29e-4 c 0,-0.292251 -0.23691,-0.529167 -0.52916,-0.529167 z"
           id="rect6676"
           style="opacity:1;fill:#e5e5e5;fill-opacity:1;stroke:none;stroke-width:0.26458299" />
      </g>
      <g
         style="opacity:1;fill:#e5e5e5;fill-opacity:1"
         id="g1182"
         transform="translate(-113.03247,68.353909)"
         clip-path="url(#clipPath4892)">
        <path
           inkscape:connector-curvature="0"
           d="m 125.20336,4.6702016 c 0.43837,0 0.79375,0.3553883 0.79375,0.79375 0,0.4383617 -0.35538,0.79375 -0.79375,0.79375 -0.43838,0 -0.79375,-0.3553883 -0.79375,-0.79375 0,-0.4383617 0.35537,-0.79375 0.79375,-0.79375 z m 0,2.1166667 c 1.58744,-7.938e-4 1.58744,1.0592224 1.58744,1.0592224 V 8.110674 h -3.175 V 7.8460907 c 0,0 0,-1.0583334 1.58756,-1.0592224 z"
           id="path6174-8"
           style="color:#000000;font-style:normal;font-variant:normal;font-weight:normal;font-stretch:normal;font-size:medium;line-height:normal;font-family:Sans;-inkscape-font-specification:Sans;text-indent:0;text-align:start;text-decoration:none;text-decoration-line:none;letter-spacing:normal;word-spacing:normal;text-transform:none;writing-mode:lr-tb;direction:ltr;baseline-shift:baseline;text-anchor:start;display:inline;overflow:visible;visibility:visible;opacity:1;fill:#e5e5e5;fill-opacity:1;stroke:none;stroke-width:0.529167;marker:none;enable-background:accumulate" />
      </g>
      <g
         style="opacity:1;fill:#e5e5e5;fill-opacity:1"
         id="g1232"
         transform="translate(-142.20748,62.452127)"
         clip-path="url(#clipPath4888)">
        <path
           inkscape:connector-curvature="0"
           d="m 157.35488,25.918706 -0.0408,0.487826 a 1.4552084,1.4552084 0 0 0 -0.4253,0.24598 l -0.44338,-0.208772 -0.46302,0.802016 0.40256,0.279572 a 1.4552084,1.4552084 0 0 0 -0.0222,0.245462 1.4552084,1.4552084 0 0 0 0.0212,0.246496 l -0.40153,0.278537 0.46302,0.802016 0.44235,-0.208253 a 1.4552084,1.4552084 0 0 0 0.42633,0.244427 l 0.0408,0.48886 h 0.92604 l 0.0408,-0.487826 a 1.4552084,1.4552084 0 0 0 0.4253,-0.24598 l 0.44338,0.208772 0.46302,-0.802016 -0.40255,-0.279571 a 1.4552084,1.4552084 0 0 0 0.0222,-0.245462 1.4552084,1.4552084 0 0 0 -0.0212,-0.246497 l 0.40152,-0.278537 -0.46302,-0.802016 -0.44235,0.208254 a 1.4552084,1.4552084 0 0 0 -0.42633,-0.244428 l -0.0408,-0.48886 z m 0.46302,1.322917 a 0.52916668,0.52916668 0 0 1 0.52916,0.529167 0.52916668,0.52916668 0 0 1 -0.52916,0.529166 0.52916668,0.52916668 0 0 1 -0.52917,-0.529166 0.52916668,0.52916668 0 0 1 0.52917,-0.529167 z"
           id="path10500-6"
           style="display:inline;opacity:1;fill:#e5e5e5;fill-opacity:1;stroke:none;stroke-width:0.26458299;stroke-opacity:1;enable-background:new" />
      </g>
      <g
         style="opacity:1;fill:#e5e5e5;fill-opacity:1"
         id="g1282"
         transform="translate(-102.26238,11.761271)"
         clip-path="url(#clipPath4884)">
        <path
           inkscape:connector-curvature="0"
           d="m 130.30822,76.609563 c -0.58632,0 -1.05834,0.48197 -1.05834,1.07487 v 0.51263 h -0.52916 v 2.116667 h 3.175 v -2.116667 h -0.52917 v -0.51263 c 0,-0.592667 -0.47202,-1.07487 -1.05833,-1.07487 z m 0,0.529167 c 0.29316,0 0.52916,0.236008 0.52916,0.529166 v 0.529167 h -1.05833 v -0.529167 c 0,-0.293158 0.23601,-0.529166 0.52917,-0.529166 z"
           id="path5739-9"
           style="color:#000000;display:inline;overflow:visible;visibility:visible;opacity:1;fill:#e5e5e5;fill-opacity:1;fill-rule:nonzero;stroke:none;stroke-width:0.26458299;marker:none;enable-background:accumulate" />
      </g>
      <g
         style="opacity:1;fill:#e5e5e5;fill-opacity:1"
         id="g1383"
         transform="translate(-63.341692,44.625117)"
         clip-path="url(#clipPath4880)">
        <path
           inkscape:connector-curvature="0"
           d="m 104.35211,44.0103 v 3.175 l 0.79375,0.0011 a 0.26458334,0.26458334 0 0 0 0.26458,-0.264584 v -2.645833 c 0,-0.146124 -0.11846,-0.264583 -0.26458,-0.264583 z"
           id="path5391"
           style="display:inline;opacity:1;fill:#e5e5e5;fill-opacity:1;stroke:none;stroke-width:0.26458299;enable-background:new" />
        <path
           inkscape:connector-curvature="0"
           d="m 103.29378,44.0103 -0.79375,0.0011 c -0.14613,0 -0.26459,0.118459 -0.26459,0.264583 v 2.645833 a 0.26458334,0.26458334 0 0 0 0.26459,0.264584 l 0.79375,-0.0011 z"
           id="path5389"
           style="display:inline;opacity:1;fill:#e5e5e5;fill-opacity:1;stroke:none;stroke-width:0.26458299;enable-background:new" />
      </g>
      <g
         style="opacity:1;fill:#e5e5e5;fill-opacity:1"
         id="g1438"
         transform="translate(-67.182405,11.268841)"
         clip-path="url(#clipPath4876)">
        <path
           inkscape:connector-curvature="0"
           d="m 119.08312,77.968022 a 0.26458334,0.26458334 0 0 0 -0.20257,0.09457 0.26458334,0.26458334 0 0 0 -0.0222,0.03049 c -0.308,0.389006 -0.42695,0.909529 -0.28887,1.408184 0.19084,0.689213 0.82223,1.167159 1.53737,1.163751 0.71514,-0.0034 1.34174,-0.487219 1.52601,-1.178221 0.1323,-0.496133 0.0109,-1.011605 -0.29559,-1.396815 a 0.26458334,0.26458334 0 0 0 -0.22221,-0.121957 0.26458334,0.26458334 0 0 0 -0.26458,0.264583 0.26458334,0.26458334 0 0 0 0.0646,0.173633 c 0.21247,0.257712 0.29681,0.606243 0.20671,0.944129 -0.12339,0.462701 -0.53865,0.783201 -1.01751,0.785482 -0.47886,0.0024 -0.89748,-0.314159 -1.02526,-0.775663 -0.0944,-0.340892 -0.0113,-0.694902 0.20412,-0.955498 5.3e-4,-7.94e-4 10e-4,-0.0013 0.002,-0.0021 a 0.26458334,0.26458334 0 0 0 0,-5.29e-4 0.26458334,0.26458334 0 0 0 0.0625,-0.1695 0.26458334,0.26458334 0 0 0 -0.26459,-0.264583 z"
           id="path5826"
           style="color:#000000;font-style:normal;font-variant:normal;font-weight:normal;font-stretch:normal;font-size:medium;line-height:normal;font-family:sans-serif;text-indent:0;text-align:start;text-decoration:none;text-decoration-line:none;text-decoration-style:solid;text-decoration-color:#000000;letter-spacing:normal;word-spacing:normal;text-transform:none;writing-mode:lr-tb;direction:ltr;baseline-shift:baseline;text-anchor:start;white-space:normal;clip-rule:nonzero;display:inline;overflow:visible;visibility:visible;opacity:1;isolation:auto;mix-blend-mode:normal;color-interpolation:sRGB;color-interpolation-filters:linearRGB;solid-color:#000000;solid-opacity:1;fill:#e5e5e5;fill-opacity:1;fill-rule:nonzero;stroke:none;stroke-width:0.529167;stroke-linecap:butt;stroke-linejoin:round;stroke-miterlimit:4;stroke-dasharray:none;stroke-dashoffset:0;stroke-opacity:1;color-rendering:auto;image-rendering:auto;shape-rendering:auto;text-rendering:auto;enable-background:accumulate" />
        <path
           inkscape:connector-curvature="0"
           d="m 120.09908,77.233184 a 0.26458334,0.26458334 0 0 0 -0.26459,0.264584 0.26458334,0.26458334 0 0 0 0,0.0011 v 1.320848 a 0.26458334,0.26458334 0 0 0 0,0.0011 0.26458334,0.26458334 0 0 0 0.26459,0.264583 0.26458334,0.26458334 0 0 0 0.26458,-0.264583 0.26458334,0.26458334 0 0 0 0,-0.0011 v -1.320848 a 0.26458334,0.26458334 0 0 0 0,-0.0011 0.26458334,0.26458334 0 0 0 -0.26458,-0.264584 z"
           id="rect5824"
           style="color:#bebebe;opacity:1;fill:#e5e5e5;fill-opacity:1;stroke:none;stroke-width:0.26458299" />
      </g>
      <g
         style="opacity:1;fill:#000000;fill-opacity:1"
         id="g1528"
         transform="translate(-94.9851,-48.417553)"
         clip-path="url(#clipPath4872)">
        <path
           inkscape:connector-curvature="0"
           d="m 151.54038,88.323268 -1.32291,1.322916 -1.32292,-1.322916 z"
           id="path6424"
           style="opacity:1;fill:#000000;fill-opacity:1;stroke:none;stroke-width:0.26458299" />
      </g>
      <g
         style="opacity:1;fill:#e5e5e5;fill-opacity:1"
         id="g1578"
         transform="translate(-108.82577,12.85503)"
         clip-path="url(#clipPath4868)">
        <path
           inkscape:connector-curvature="0"
           d="m 163.39667,56.421896 1.32292,-1.322917 -1.32292,-1.322916 z"
           id="path6412"
           style="opacity:1;fill:#e5e5e5;fill-opacity:1;stroke:none;stroke-width:0.26458299" />
      </g>
      <g
         style="opacity:1;fill:#e5e5e5;fill-opacity:1"
         transform="translate(-108.82577,19.685251)"
         id="g1582"
         clip-path="url(#clipPath4864)">
        <path
           style="opacity:1;fill:#e5e5e5;fill-opacity:1;stroke:none;stroke-width:0.26458299"
           id="path1580"
           d="m 163.39667,56.421896 1.32292,-1.322917 -1.32292,-1.322916 z"
           inkscape:connector-curvature="0" />
      </g>
      <g
         style="opacity:1;fill:#e5e5e5;fill-opacity:1"
         id="g1586"
         transform="translate(-108.82577,5.9984227)"
         clip-path="url(#clipPath4860)">
        <path
           inkscape:connector-curvature="0"
           d="m 163.39667,56.421896 1.32292,-1.322917 -1.32292,-1.322916 z"
           id="path1584"
           style="opacity:1;fill:#e5e5e5;fill-opacity:1;stroke:none;stroke-width:0.26458299" />
      </g>
    </g>
    <g
       inkscape:groupmode="layer"
       id="layer9"
       inkscape:label="Sliders">
      <rect
         style="fill:#71c9d6;fill-opacity:1;stroke:none;stroke-width:0.529167;stroke-miterlimit:4;stroke-dasharray:none;stroke-opacity:1"
         id="rect1718"
         width="39.687496"
         height="1.0583334"
         x="16.933334"
         y="19.314581"
         rx="0.5291667"
         clip-path="url(#clipPath4856)" />
      <rect
         rx="0.5291667"
         y="26.987495"
         x="16.933334"
         height="1.0583334"
         width="39.687496"
         id="rect1724"
         style="fill:#464342;fill-opacity:1;stroke:none;stroke-width:0.529167;stroke-miterlimit:4;stroke-dasharray:none;stroke-opacity:1"
         clip-path="url(#clipPath4852)" />
      <rect
         rx="0.5291667"
         y="26.987495"
         x="16.933334"
         height="1.0583334"
         width="21.43125"
         id="rect1720"
         style="fill:#71c9d6;fill-opacity:1;stroke:none;stroke-width:0.38885701;stroke-miterlimit:4;stroke-dasharray:none;stroke-opacity:1"
         clip-path="url(#clipPath4848)" />
      <circle
         style="fill:#2c2a2a;fill-opacity:1;stroke:#000000;stroke-width:0.26458299;stroke-miterlimit:4;stroke-dasharray:none;stroke-opacity:0.16112659"
         id="path1722"
         cx="38.761459"
         cy="27.516663"
         r="1.7197917"
         clip-path="url(#clipPath4844)" />
      <circle
         r="1.7197917"
         cy="19.843748"
         cx="56.620834"
         id="circle1726"
         style="fill:#2c2a2a;fill-opacity:1;stroke:#000000;stroke-width:0.26458299;stroke-miterlimit:4;stroke-dasharray:none;stroke-opacity:0.16112659"
         clip-path="url(#clipPath4840)" />
    </g>
    <path
       style="fill:none;stroke:#302e2d;stroke-width:0.26458299px;stroke-linecap:butt;stroke-linejoin:miter;stroke-opacity:1"
       d="M 21.166667,33.337499 H 44.979168"
       id="path1743"
       inkscape:connector-curvature="0"
       sodipodi:nodetypes="cc"
       clip-path="url(#clipPath4836)" />
    <path
       sodipodi:nodetypes="cc"
       inkscape:connector-curvature="0"
       id="path1745"
       d="M 21.166667,80.962502 H 44.979168"
       style="fill:none;stroke:#302e2d;stroke-width:0.26458299px;stroke-linecap:butt;stroke-linejoin:miter;stroke-opacity:1"
       clip-path="url(#clipPath4832)" />
    <circle
       style="fill:none;fill-opacity:1;stroke:#302e2d;stroke-width:0.26458299;stroke-miterlimit:4;stroke-dasharray:none;stroke-opacity:1"
       id="path1747"
       cx="15.610435"
       cy="90.222916"
       r="4.1010418"
       clip-path="url(#clipPath4828)" />
    <circle
       r="4.1010418"
       cy="90.222916"
       cx="28.045839"
       id="circle1784"
       style="fill:none;fill-opacity:1;stroke:#302e2d;stroke-width:0.26458299;stroke-miterlimit:4;stroke-dasharray:none;stroke-opacity:1"
       clip-path="url(#clipPath4824)" />
    <circle
       style="fill:none;fill-opacity:1;stroke:#302e2d;stroke-width:0.26458299;stroke-miterlimit:4;stroke-dasharray:none;stroke-opacity:1"
       id="circle1786"
       cx="40.481247"
       cy="90.223465"
       r="4.1010418"
       clip-path="url(#clipPath4820)" />
    <circle
       r="4.1010418"
       cy="90.217949"
       cx="52.916767"
       id="circle1788"
       style="fill:none;fill-opacity:1;stroke:#302e2d;stroke-width:0.26458299;stroke-miterlimit:4;stroke-dasharray:none;stroke-opacity:1"
       clip-path="url(#clipPath4816)" />
    <path
       inkscape:connector-curvature="0"
       id="path944"
       d="M 4.2333334,57.282291 H 61.912502"
       style="fill:none;stroke:#000000;stroke-width:0.26458299px;stroke-linecap:butt;stroke-linejoin:miter;stroke-opacity:0.28562849"
       clip-path="url(#clipPath4812)" />
  </g>
  <g
     inkscape:groupmode="layer"
     id="layer4"
     inkscape:label="Panel"
     transform="translate(0,1.3618187e-5)">
    <path
       id="rect842"
       style="fill:#282626;fill-opacity:1;stroke:none;stroke-width:0.23685475;stroke-miterlimit:4;stroke-dasharray:none;stroke-opacity:0.41318102"
       d="m 0,0 v 8.2020832 h 64.293753 c 2.273536,0 4.103856,1.3717986 4.103856,3.0757818 V 8.2020832 0 Z"
       inkscape:connector-curvature="0"
       clip-path="url(#clipPath4808)" />
    <path
       d="m 39.158336,7.9374998 h 25.135417 c 2.198687,0 4.233333,2.0346445 4.233333,4.2333322"
       style="fill:none;fill-opacity:1;stroke:#f8b572;stroke-width:0.5291667;stroke-miterlimit:4;stroke-dasharray:none;stroke-opacity:1"
       id="path853"
       inkscape:connector-curvature="0"
       sodipodi:nodetypes="csc"
       clip-path="url(#clipPath4804)"
       transform="matrix(1.042902,0,0,1,-2.8377888,0)" />
    <g
       inkscape:groupmode="layer"
       id="layer10"
       inkscape:label="Icons 1">
      <g
         transform="translate(-48.045154,23.064551)"
         id="g1841"
         style="display:inline;opacity:1;fill:#ffffff;fill-opacity:1"
         clip-path="url(#clipPath4800)">
        <path
           style="opacity:1;fill:#ffffff;fill-opacity:1;stroke:none;stroke-width:0.26458299"
           id="path1839"
           d="m 108.89933,-21.063641 c -0.29225,0 -0.52917,0.236916 -0.52917,0.529167 h -0.26458 c -0.29225,0 -0.52917,0.236916 -0.52917,0.529167 v 2.38125 c 0,0.292251 0.23692,0.529167 0.52917,0.529167 h 1.5875 a 0.52916668,0.52916668 0 0 0 0.52916,-0.529167 v -2.38125 c 0,-0.292251 -0.23691,-0.529167 -0.52916,-0.529167 l -0.26459,5.29e-4 v -5.29e-4 c 0,-0.292251 -0.23691,-0.529167 -0.52916,-0.529167 z"
           inkscape:connector-curvature="0" />
      </g>
      <g
         transform="translate(-56.676215,18.856666)"
         id="g1796"
         style="opacity:1;fill:#ffffff;fill-opacity:1"
         clip-path="url(#clipPath4796)">
        <path
           style="opacity:1;vector-effect:none;fill:#ffffff;fill-opacity:1;stroke:none;stroke-width:0.26458299;stroke-linecap:round;stroke-linejoin:miter;stroke-miterlimit:4;stroke-dasharray:none;stroke-dashoffset:0;stroke-opacity:0.31372501"
           id="path1790"
           d="m 109.06372,-16.988047 -1.85209,2.116667 1.85209,2.116667 z m -1.32292,2.116667 v -0.79375 c 0,-0.146579 -0.118,-0.264584 -0.26458,-0.264584 -0.14658,0 -0.26459,0.118005 -0.26459,0.264584 v 1.5875 c 0,0.146579 0.11801,0.264583 0.26459,0.264583 0.14658,0 0.26458,-0.118004 0.26458,-0.264583 z"
           inkscape:connector-curvature="0" />
        <path
           style="opacity:1;vector-effect:none;fill:#ffffff;fill-opacity:1;stroke:none;stroke-width:0.26458299;stroke-linecap:round;stroke-linejoin:round;stroke-miterlimit:4;stroke-dasharray:none;stroke-dashoffset:0;stroke-opacity:0.31372501"
           id="path1792"
           d="m 110.65122,-16.723464 -0.45321,0.272336 c 0.24722,0.411552 0.45325,1.099653 0.45321,1.579748 4e-5,0.480094 -0.20599,1.168196 -0.45321,1.579748 l 0.45321,0.272335 c 0.29677,-0.49376 0.52906,-1.276001 0.52916,-1.852083 -1e-4,-0.576083 -0.23239,-1.358323 -0.52916,-1.852084 z"
           inkscape:connector-curvature="0" />
        <path
           style="opacity:1;vector-effect:none;fill:#ffffff;fill-opacity:1;stroke:none;stroke-width:0.26458299;stroke-linecap:round;stroke-linejoin:round;stroke-miterlimit:4;stroke-dasharray:none;stroke-dashoffset:0;stroke-opacity:0.31372501"
           id="path1794"
           d="m 109.79132,-16.326589 -0.45372,0.272336 c 0.17312,0.288086 0.25528,0.846773 0.25528,1.182873 0,0.3361 -0.0822,0.894786 -0.25528,1.182873 l 0.45372,0.272335 c 0.22249,-0.370345 0.33073,-1.02317 0.33073,-1.455208 0,-0.432038 -0.10824,-1.084863 -0.33073,-1.455209 z"
           inkscape:connector-curvature="0" />
      </g>
      <g
         transform="translate(-69.284896,25.645231)"
         id="g1802"
         style="opacity:1;fill:#ffffff;fill-opacity:1"
         clip-path="url(#clipPath4792)">
        <path
           style="opacity:0.35;fill:#ffffff;fill-opacity:1;stroke:none;stroke-width:0.529167;stroke-linecap:square;stroke-linejoin:miter;stroke-miterlimit:4;stroke-dasharray:none;stroke-opacity:1"
           id="path1798"
           d="m 113.20675,-23.22882 c -0.38304,0 -0.7662,0.07307 -1.12654,0.219106 -0.18018,0.07305 -0.35492,0.164338 -0.5209,0.273887 -0.16599,0.109548 -0.3231,0.2374 -0.46922,0.383439 l 1.73322,2.09858 h 5.3e-4 c 0.0998,0.10401 0.23774,0.162801 0.38189,0.162779 0.14457,-2.43e-4 0.28274,-0.05962 0.38241,-0.16433 h 0.001 l 1.73426,-2.097029 c -0.21936,-0.219228 -0.46411,-0.397346 -0.72502,-0.534334 -0.006,-0.0031 -0.0122,-0.0052 -0.0181,-0.0083 -0.093,-0.04805 -0.18822,-0.09001 -0.28474,-0.12764 -0.0363,-0.01415 -0.0733,-0.02606 -0.11007,-0.03876 -0.0671,-0.02318 -0.13477,-0.04426 -0.20309,-0.06253 -0.042,-0.01124 -0.0842,-0.02162 -0.12661,-0.031 -0.0698,-0.01543 -0.14028,-0.02785 -0.21083,-0.03824 -0.0386,-0.0057 -0.077,-0.01236 -0.11576,-0.01654 -0.10724,-0.01154 -0.21468,-0.01913 -0.32246,-0.01913 z"
           inkscape:connector-curvature="0" />
        <path
           style="opacity:1;fill:#ffffff;fill-opacity:1;stroke:none;stroke-width:0.529167;stroke-linecap:square;stroke-linejoin:miter;stroke-miterlimit:4;stroke-dasharray:none;stroke-opacity:1"
           id="path1800"
           d="m 113.20675,-22.43507 c -0.58934,0 -1.17867,0.22447 -1.62832,0.673859 l 1.24488,1.507403 h 5.3e-4 c 0.0998,0.10401 0.23774,0.162801 0.38189,0.162779 0.14457,-2.43e-4 0.28274,-0.05962 0.38241,-0.16433 h 0.001 l 1.2454,-1.506368 c -0.44959,-0.44904 -1.0387,-0.673343 -1.62781,-0.673343 z"
           inkscape:connector-curvature="0" />
      </g>
    </g>
  </g>
</svg>
